Coordinates
version=1
nRows=16
nColumns=63
inDegrees=yes

Units are S.I. units (second, meters, Newtons, ...)
If the header above contains a line with 'inDegrees', this indicates whether rotational values are in degrees (yes) or radians (no).

endheader
time	pelvis_tilt	pelvis_list	pelvis_rotation	pelvis_tx	pelvis_ty	pelvis_tz	hip_flexion_r	hip_adduction_r	hip_rotation_r	knee_angle_r	knee_angle_r_beta	ankle_angle_r	subtalar_angle_r	mtp_angle_r	hip_flexion_l	hip_adduction_l	hip_rotation_l	knee_angle_l	knee_angle_l_beta	ankle_angle_l	subtalar_angle_l	mtp_angle_l	L5_S1_Flex_Ext	L5_S1_Lat_Bending	L5_S1_axial_rotation	L4_L5_Flex_Ext	L4_L5_Lat_Bending	L4_L5_axial_rotation	L3_L4_Flex_Ext	L3_L4_Lat_Bending	L3_L4_axial_rotation	L2_L3_Flex_Ext	L2_L3_Lat_Bending	L2_L3_axial_rotation	L1_L2_Flex_Ext	L1_L2_Lat_Bending	L1_L2_axial_rotation	L1_T12_Flex_Ext	L1_T12_Lat_Bending	L1_T12_axial_rotation	Abs_r3	Abs_r2	Abs_r1	Abs_t1	Abs_t2	neck_flexion	neck_bending	neck_rotation	arm_flex_r	arm_add_r	arm_rot_r	elbow_flex_r	pro_sup_r	wrist_flex_r	wrist_dev_r	arm_flex_l	arm_add_l	arm_rot_l	elbow_flex_l	pro_sup_l	wrist_flex_l	wrist_dev_l
1.719298	-2.433950	0.358208	80.860488	0.272891	0.966973	0.587769	-1.001723	-4.555863	-3.737752	12.273278	0.214209	35.032983	12.273485	0.000000	-2.746231	3.841156	-6.990559	9.422250	0.164449	32.075603	-2.166720	0.000000	0.138748	-0.701985	1.574437	0.257668	-0.933640	1.672839	0.227948	-1.706805	1.672839	0.158575	-1.706805	1.377632	0.128841	-1.431487	1.279230	0.079280	-1.087374	1.180828	0.991061	-7.940990	8.756546	0.000000	0.000000	10.639610	3.683881	-24.161803	57.500760	-37.048722	-6.994776	142.909859	76.461936	-10.316659	4.367731	71.527255	-18.468109	9.146730	123.009712	76.552578	13.348281	7.731109
1.736842	-2.417162	0.234749	80.997390	0.272748	0.966881	0.587895	-0.908807	-4.538610	-4.202365	12.266913	0.214098	35.031789	12.617982	0.000000	-2.567465	3.786578	-6.862320	9.535242	0.166421	32.090110	-2.133512	0.000000	0.135874	-0.686805	1.580272	0.252332	-0.913450	1.679039	0.223228	-1.669897	1.679039	0.155291	-1.669897	1.382738	0.126173	-1.400532	1.283971	0.077639	-1.063861	1.185204	0.970536	-7.769273	8.789000	0.000000	0.000000	10.669836	3.473618	-23.996944	57.728290	-37.190639	-6.959653	143.102505	76.992243	-10.560514	4.270955	71.621847	-18.452673	9.495770	122.429529	76.926400	13.345252	7.475768
1.754386	-2.398382	0.160028	81.074672	0.272737	0.966866	0.588036	-0.866060	-4.522010	-4.530698	12.228568	0.213429	35.036610	12.881241	0.000000	-2.466594	3.750927	-6.626348	9.564685	0.166935	32.088136	-2.228153	0.000000	0.131466	-0.670280	1.585845	0.244145	-0.891473	1.684961	0.215985	-1.629719	1.684961	0.150252	-1.629719	1.387615	0.122079	-1.366836	1.288499	0.075119	-1.038264	1.189384	0.939046	-7.582345	8.819996	0.000000	0.000000	10.611259	3.272944	-23.661340	57.963414	-37.206186	-6.811008	143.210446	77.604165	-10.658819	4.240400	71.579491	-18.550134	9.798245	121.844002	77.511813	13.395185	7.075917
1.771930	-2.396893	0.124023	81.127013	0.272831	0.966913	0.588216	-0.865610	-4.521457	-4.748392	12.151044	0.212076	35.058168	13.056860	0.000000	-2.418264	3.740153	-6.349090	9.526830	0.166275	32.111725	-2.301869	0.000000	0.126154	-0.657091	1.589545	0.234280	-0.873930	1.688891	0.207258	-1.597650	1.688891	0.144181	-1.597650	1.390852	0.117146	-1.339939	1.291505	0.072084	-1.017833	1.192159	0.901104	-7.433140	8.840571	0.000000	0.000000	10.459837	3.124756	-23.317330	58.153440	-37.148521	-6.586019	143.226223	78.343675	-10.671637	4.183721	71.458165	-18.725883	10.106978	121.243952	78.195901	13.497272	6.569646
1.789474	-2.399003	0.131850	81.113057	0.273047	0.967018	0.588411	-0.904121	-4.530721	-4.840795	12.047042	0.210261	35.101342	13.186449	0.000000	-2.443058	3.749426	-6.024764	9.395437	0.163981	32.148840	-2.421232	0.000000	0.119379	-0.642910	1.591288	0.221698	-0.855071	1.690744	0.196127	-1.563172	1.690744	0.136438	-1.563172	1.392377	0.110855	-1.311022	1.292922	0.068213	-0.995868	1.193466	0.852711	-7.272729	8.850267	0.000000	0.000000	10.222031	3.010107	-22.762819	58.362878	-36.966470	-6.226336	143.116983	79.069555	-10.463257	4.309920	71.231338	-19.003035	10.316323	120.694099	78.997859	13.680378	5.985587
1.807018	-2.424606	0.167895	81.029669	0.273407	0.967153	0.588595	-0.965129	-4.567650	-4.819108	11.912256	0.207908	35.169057	13.294370	0.000000	-2.516678	3.791384	-5.811757	9.184839	0.160306	32.250280	-2.386031	0.000000	0.113165	-0.632492	1.599871	0.210159	-0.841214	1.699863	0.185919	-1.537841	1.699863	0.129336	-1.537841	1.399887	0.105085	-1.289778	1.299895	0.064663	-0.979730	1.199903	0.808327	-7.154876	8.898003	0.000000	0.000000	9.919559	2.919906	-22.227922	58.531441	-36.745231	-5.803364	142.899934	79.740256	-10.070925	4.538740	70.961157	-19.307876	10.488745	120.175484	79.881150	13.885452	5.191298
1.824561	-2.469923	0.220791	80.928701	0.273859	0.967294	0.588722	-1.055171	-4.618095	-4.672709	11.733611	0.204790	35.239880	13.300802	0.000000	-2.641129	3.862692	-5.437645	8.872812	0.154860	32.320407	-2.517150	0.000000	0.106724	-0.624641	1.598766	0.198197	-0.830773	1.698689	0.175337	-1.518753	1.698689	0.121975	-1.518753	1.398920	0.099104	-1.273768	1.298998	0.060982	-0.967569	1.199075	0.762320	-7.066066	8.891858	0.000000	0.000000	9.639927	2.902779	-21.519823	58.687266	-36.437532	-5.302028	142.573739	80.250920	-9.542127	4.861116	70.671825	-19.666569	10.520166	119.795449	80.706049	14.231394	4.391516
1.842105	-2.535787	0.299970	80.766284	0.274418	0.967423	0.588773	-1.172271	-4.689154	-4.355838	11.525890	0.201165	35.316038	13.210248	0.000000	-2.841021	3.974036	-4.920895	8.438000	0.147271	32.334061	-2.878454	0.000000	0.098279	-0.617961	1.592721	0.182514	-0.821888	1.692267	0.161463	-1.502510	1.692267	0.112323	-1.502510	1.393631	0.091262	-1.260146	1.294086	0.056157	-0.957221	1.194541	0.701998	-6.990497	8.858239	0.000000	0.000000	9.386827	2.918526	-20.610548	58.910901	-36.027902	-4.711170	142.147080	80.639187	-8.838502	5.390731	70.361759	-20.083574	10.347303	119.611187	81.610250	14.630181	3.527954
1.859649	-2.613612	0.365998	80.555054	0.275052	0.967511	0.588723	-1.274969	-4.767796	-3.922617	11.305760	0.197323	35.373307	13.057357	0.000000	-3.060937	4.106610	-4.298004	7.925769	0.138331	32.269654	-3.476429	0.000000	0.092608	-0.611312	1.580118	0.171982	-0.813045	1.678876	0.152146	-1.486344	1.678876	0.105842	-1.486344	1.382604	0.085996	-1.246588	1.283846	0.052916	-0.946923	1.185089	0.661489	-6.915285	8.788145	0.000000	0.000000	9.202439	2.966000	-19.488104	59.172472	-35.534366	-4.052680	141.656265	80.910370	-8.133877	5.940001	70.038964	-20.534249	9.945697	119.722599	82.457952	15.004077	2.927270
1.877193	-2.698221	0.426676	80.344642	0.275703	0.967566	0.588590	-1.387594	-4.849130	-3.454040	11.064110	0.193105	35.394798	12.870242	0.000000	-3.287200	4.241058	-3.788239	7.396869	0.129100	32.210035	-3.974548	0.000000	0.086988	-0.604993	1.550957	0.161545	-0.804640	1.647892	0.142912	-1.470979	1.647892	0.099418	-1.470979	1.357088	0.080777	-1.233701	1.260153	0.049705	-0.937133	1.163218	0.621345	-6.843797	8.625958	0.000000	0.000000	9.090641	3.032927	-18.237896	59.505442	-34.937298	-3.365731	141.114958	80.969145	-7.392999	6.492069	69.729648	-21.021597	9.306956	120.120988	83.340078	15.365887	2.498616
1.894737	-2.785914	0.471024	80.106667	0.276359	0.967571	0.588368	-1.486565	-4.934773	-2.971972	10.828016	0.188985	35.378809	12.701610	0.000000	-3.520854	4.383283	-3.248148	6.834230	0.119280	32.058565	-4.648344	0.000000	0.083474	-0.597893	1.516056	0.155020	-0.795197	1.610809	0.137140	-1.453717	1.610809	0.095403	-1.453717	1.326549	0.077514	-1.219223	1.231795	0.047697	-0.926136	1.137042	0.596247	-6.763484	8.431847	0.000000	0.000000	9.034408	3.081155	-16.914677	59.917224	-34.277256	-2.675802	140.568867	80.994665	-6.675480	7.062766	69.421556	-21.514536	8.457857	120.789376	84.128447	15.687436	2.357055
1.912281	-2.870973	0.502918	79.844957	0.277014	0.967528	0.588075	-1.575627	-5.017596	-2.470542	10.606570	0.185120	35.324934	12.532374	0.000000	-3.753459	4.524109	-2.768274	6.273950	0.109501	31.844401	-5.396085	0.000000	0.080943	-0.589507	1.478407	0.150320	-0.784044	1.570807	0.132981	-1.433327	1.570807	0.092510	-1.433327	1.293606	0.075164	-1.202123	1.201206	0.046251	-0.913146	1.108805	0.578169	-6.668621	8.222456	0.000000	0.000000	9.031977	3.084158	-15.546304	60.416535	-33.574895	-1.976845	140.023694	80.969651	-5.971247	7.669247	69.131627	-22.031963	7.480761	121.661066	84.722828	15.939422	2.475296
1.929825	-2.955733	0.515369	79.607490	0.277593	0.967444	0.587683	-1.655656	-5.101706	-2.039397	10.404421	0.181591	35.240798	12.400488	0.000000	-3.983916	4.665969	-2.228080	5.708426	0.099631	31.550905	-6.301087	0.000000	0.080263	-0.581973	1.442769	0.149056	-0.774024	1.532942	0.131864	-1.415008	1.532942	0.091732	-1.415008	1.262423	0.074532	-1.186759	1.172250	0.045862	-0.901476	1.082077	0.573309	-6.583391	8.024248	0.000000	0.000000	9.066798	3.057532	-14.342814	60.946176	-32.915453	-1.319892	139.526150	81.011590	-5.357247	8.347838	68.874425	-22.455173	6.472006	122.624387	85.187027	16.131164	2.681171
1.947368	-3.037948	0.504141	79.362068	0.278159	0.967302	0.587238	-1.711842	-5.178898	-1.625831	10.225034	0.178461	35.149090	12.277728	0.000000	-4.192820	4.803676	-1.740678	5.175372	0.090327	31.225727	-7.245497	0.000000	0.081514	-0.574120	1.414031	0.151379	-0.763580	1.502408	0.133919	-1.395916	1.502408	0.093162	-1.395916	1.237277	0.075693	-1.170746	1.148901	0.046577	-0.889312	1.060524	0.582243	-6.494562	7.864418	0.000000	0.000000	9.152960	2.985262	-13.225728	61.516426	-32.274621	-0.641544	139.033644	81.019762	-4.765118	9.091071	68.667762	-22.820648	5.473805	123.637265	85.381114	16.265359	3.096794
1.964912	-3.101110	0.475738	79.145393	0.278638	0.967117	0.586744	-1.753537	-5.235173	-1.267328	10.075890	0.175857	35.072033	12.177253	0.000000	-4.368227	4.918639	-1.328322	4.725185	0.082470	30.923373	-8.146581	0.000000	0.083653	-0.561947	1.386589	0.155352	-0.747389	1.473251	0.137434	-1.366317	1.473251	0.095607	-1.366317	1.213265	0.077680	-1.145922	1.126604	0.047799	-0.870456	1.039942	0.597526	-6.356854	7.711792	0.000000	0.000000	9.305407	2.824980	-12.086275	62.157516	-31.668810	0.112098	138.537903	81.166808	-4.184257	10.054360	68.491474	-23.132880	4.497651	124.617589	85.466591	16.407881	3.450312
1.982456	-3.147013	0.429975	78.963506	0.279038	0.966894	0.586224	-1.776338	-5.268861	-0.951373	9.956315	0.173770	35.026616	12.081806	0.000000	-4.505070	5.008700	-1.034307	4.370129	0.076273	30.665850	-8.917058	0.000000	0.085954	-0.545687	1.358899	0.159626	-0.725763	1.443830	0.141214	-1.326783	1.443830	0.098237	-1.326783	1.189037	0.079817	-1.112764	1.104106	0.049114	-0.845269	1.019174	0.613963	-6.172917	7.557789	0.000000	0.000000	9.557175	2.604357	-10.880013	62.848055	-31.092811	0.956552	138.025424	81.356916	-3.633511	11.111728	68.360685	-23.396659	3.573898	125.545570	85.471318	16.518040	3.841281
